<svg xmlns="http://www.w3.org/2000/svg" width="149" height="37" fill="none"><g filter="url(#a)"><ellipse cx="26.326" cy="17.266" fill="url(#b)" rx="1.361" ry="7.484"/></g><g filter="url(#c)"><path fill="url(#d)" fill-rule="evenodd" d="M14.1 8.986a8.582 8.582 0 0 0-3.194.763 91.876 91.876 0 0 0-.295 7.552c0 2.897.12 5.613.33 7.954.966.435 2.03.697 3.148.747-.44 4.435-1.211 7.377-2.09 7.377-1.367 0-2.476-7.14-2.476-15.945 0-8.807 1.11-15.945 2.477-15.945.886 0 1.663 2.994 2.1 7.497z" clip-rule="evenodd"/></g><g filter="url(#e)"><path fill="url(#f)" fill-rule="evenodd" d="M22.158 29.513c1.04 0 1.884-5.57 1.884-12.442 0-6.871-.844-12.442-1.884-12.442s-1.885 5.57-1.885 12.442.844 12.442 1.885 12.442zm.894-12.019a8.44 8.44 0 0 1-1.744 5.148 74.16 74.16 0 0 1-.207-5.674c0-1.667.05-3.257.14-4.71a8.441 8.441 0 0 1 1.81 5.236z" clip-rule="evenodd"/></g><g filter="url(#g)"><path fill="url(#h)" fill-rule="evenodd" d="M19.781 10.802a8.57 8.57 0 0 0-3.225-1.572c-.246 2.28-.389 4.992-.389 7.9 0 3.215.175 6.19.47 8.607a8.57 8.57 0 0 0 3.1-1.516c-.42 4.59-1.238 7.708-2.18 7.708-1.368 0-2.477-6.57-2.477-14.677 0-8.105 1.109-14.676 2.476-14.676.978 0 1.823 3.354 2.225 8.226z" clip-rule="evenodd"/></g><g filter="url(#i)"><path fill="url(#j)" fill-rule="evenodd" d="M8.394 11.45a8.438 8.438 0 0 0-2.522 6.021c0 2.343.955 4.464 2.501 6.001-.424 5.688-1.418 9.68-2.577 9.68C4.252 33.152 3 26.064 3 17.32 3 8.577 4.252 1.49 5.796 1.49c1.178 0 2.186 4.124 2.598 9.961z" clip-rule="evenodd"/></g><path fill="#fff" d="M39.519 12.314c1.184 0 2.218.229 3.104.688a4.744 4.744 0 0 1 2.064 1.952c.49.842.736 1.829.736 2.96 0 1.13-.246 2.112-.736 2.944-.48.832-1.168 1.472-2.064 1.92-.886.437-1.92.656-3.104.656h-3.633v-11.12h3.633zm0 9.632c1.3 0 2.298-.352 2.992-1.056.693-.704 1.04-1.696 1.04-2.976 0-1.291-.347-2.299-1.04-3.024-.694-.726-1.691-1.088-2.992-1.088H37.71v8.144h1.808zM55.31 18.81c0 .33-.021.629-.064.896H48.51c.054.704.315 1.269.784 1.696.47.426 1.046.64 1.728.64.982 0 1.675-.411 2.08-1.232h1.968a3.999 3.999 0 0 1-1.456 2c-.693.512-1.557.768-2.592.768-.842 0-1.6-.187-2.272-.56a4.185 4.185 0 0 1-1.568-1.6c-.373-.694-.56-1.494-.56-2.4 0-.907.182-1.702.544-2.384a3.935 3.935 0 0 1 1.552-1.6c.672-.374 1.44-.56 2.304-.56.832 0 1.574.181 2.224.544a3.83 3.83 0 0 1 1.52 1.536c.363.65.544 1.402.544 2.256zm-1.904-.576c-.01-.672-.25-1.211-.72-1.616-.47-.406-1.05-.608-1.744-.608-.63 0-1.168.202-1.616.608-.448.394-.714.933-.8 1.616h4.88zm6.9 5.344c-.694 0-1.318-.123-1.873-.368-.544-.256-.976-.598-1.296-1.024a2.59 2.59 0 0 1-.512-1.456h1.888c.032.373.208.688.528.944.33.245.742.368 1.232.368.512 0 .907-.096 1.184-.288.288-.203.432-.459.432-.768 0-.331-.16-.576-.48-.736-.31-.16-.805-.336-1.488-.528-.661-.182-1.2-.358-1.616-.528a2.9 2.9 0 0 1-1.088-.784c-.298-.352-.448-.816-.448-1.392 0-.47.139-.896.416-1.28.278-.395.672-.704 1.184-.928.523-.224 1.12-.336 1.792-.336 1.003 0 1.808.256 2.416.768.619.501.95 1.189.992 2.064h-1.824a1.299 1.299 0 0 0-.48-.944c-.288-.235-.677-.352-1.168-.352-.48 0-.848.09-1.104.272a.842.842 0 0 0-.384.72.78.78 0 0 0 .256.592c.17.16.379.288.624.384.246.085.608.197 1.088.336.64.17 1.163.346 1.568.528.416.17.774.426 1.072.768.299.341.454.794.464 1.36 0 .501-.138.949-.416 1.344-.277.394-.672.704-1.184.928-.501.224-1.093.336-1.776.336zM66.58 13.45a1.13 1.13 0 0 1-.832-.336 1.13 1.13 0 0 1-.336-.832c0-.331.112-.608.336-.832a1.13 1.13 0 0 1 .832-.336c.32 0 .592.112.816.336.224.224.336.501.336.832 0 .33-.112.608-.336.832a1.11 1.11 0 0 1-.816.336zm.896 1.168v8.816h-1.824v-8.816h1.824zm5.947-.144c.683 0 1.285.138 1.808.416.533.266.95.602 1.248 1.008v-1.28h1.84v8.96c0 .81-.17 1.53-.512 2.16a3.673 3.673 0 0 1-1.488 1.504c-.64.362-1.408.544-2.304.544-1.195 0-2.187-.283-2.976-.848-.79-.555-1.237-1.312-1.344-2.272h1.808c.139.458.432.826.88 1.104.459.288 1.003.432 1.632.432.736 0 1.328-.224 1.776-.672.459-.448.688-1.099.688-1.952v-1.472c-.31.416-.73.768-1.264 1.056-.523.277-1.12.416-1.792.416a4.028 4.028 0 0 1-2.112-.576 4.275 4.275 0 0 1-1.504-1.632c-.363-.704-.544-1.499-.544-2.384 0-.886.181-1.67.544-2.352a4.063 4.063 0 0 1 3.616-2.16zm3.056 4.544c0-.608-.128-1.136-.384-1.584a2.584 2.584 0 0 0-.976-1.024 2.574 2.574 0 0 0-1.312-.352c-.47 0-.907.117-1.312.352a2.58 2.58 0 0 0-.992 1.008c-.245.437-.368.96-.368 1.568 0 .608.123 1.141.368 1.6.256.458.587.81.992 1.056.416.234.853.352 1.312.352.47 0 .907-.118 1.312-.352.405-.235.73-.576.976-1.024.256-.459.384-.992.384-1.6zm8.684-4.544c.693 0 1.312.144 1.856.432a3.06 3.06 0 0 1 1.296 1.28c.309.565.464 1.248.464 2.048v5.2H86.97v-4.928c0-.79-.198-1.392-.592-1.808-.395-.427-.934-.64-1.616-.64-.683 0-1.227.213-1.632.64-.395.416-.592 1.018-.592 1.808v4.928h-1.824v-8.816h1.824v1.008a3.032 3.032 0 0 1 1.136-.848 3.706 3.706 0 0 1 1.488-.304zm24.579-2.16-3.296 11.12h-2.064l-2.336-8.416-2.48 8.416-2.049.016-3.151-11.136h1.936l2.303 9.056 2.497-9.056h2.048l2.32 9.008 2.32-9.008h1.952zm.896 6.672c0-.886.181-1.67.544-2.352a4.063 4.063 0 0 1 3.616-2.16c.693 0 1.296.138 1.808.416.523.266.939.602 1.248 1.008v-1.28h1.84v8.816h-1.84v-1.312c-.309.416-.731.762-1.264 1.04-.533.277-1.141.416-1.824.416a3.917 3.917 0 0 1-2.08-.576 4.275 4.275 0 0 1-1.504-1.632c-.363-.704-.544-1.499-.544-2.384zm7.216.032c0-.608-.128-1.136-.384-1.584a2.584 2.584 0 0 0-.976-1.024 2.574 2.574 0 0 0-1.312-.352c-.469 0-.907.117-1.312.352a2.58 2.58 0 0 0-.992 1.008c-.245.437-.368.96-.368 1.568 0 .608.123 1.141.368 1.6.256.458.587.81.992 1.056.416.234.853.352 1.312.352.469 0 .907-.118 1.312-.352.405-.235.731-.576.976-1.024.256-.459.384-.992.384-1.6zm7.644 2.784 2.496-7.184h1.936l-3.36 8.816h-2.176l-3.344-8.816h1.952l2.496 7.184zm13.89-2.992c0 .33-.021.629-.064.896h-6.736c.054.704.315 1.269.784 1.696.47.426 1.046.64 1.728.64.982 0 1.675-.411 2.08-1.232h1.968a3.994 3.994 0 0 1-1.456 2c-.693.512-1.557.768-2.592.768-.842 0-1.6-.187-2.272-.56a4.188 4.188 0 0 1-1.568-1.6c-.373-.694-.56-1.494-.56-2.4 0-.907.182-1.702.544-2.384a3.942 3.942 0 0 1 1.552-1.6c.672-.374 1.44-.56 2.304-.56.832 0 1.574.181 2.224.544a3.823 3.823 0 0 1 1.52 1.536c.363.65.544 1.402.544 2.256zm-1.904-.576c-.01-.672-.25-1.211-.72-1.616-.469-.406-1.05-.608-1.744-.608-.629 0-1.168.202-1.616.608-.448.394-.714.933-.8 1.616h4.88zm6.899 5.344c-.693 0-1.317-.123-1.872-.368-.544-.256-.976-.598-1.296-1.024a2.596 2.596 0 0 1-.512-1.456h1.888c.032.373.208.688.528.944.331.245.742.368 1.232.368.512 0 .907-.096 1.184-.288.288-.203.432-.459.432-.768 0-.331-.16-.576-.48-.736-.309-.16-.805-.336-1.488-.528a14.49 14.49 0 0 1-1.616-.528 2.906 2.906 0 0 1-1.088-.784c-.298-.352-.448-.816-.448-1.392 0-.47.139-.896.416-1.28.278-.395.672-.704 1.184-.928.523-.224 1.12-.336 1.792-.336 1.003 0 1.808.256 2.416.768.619.501.95 1.189.992 2.064h-1.824a1.299 1.299 0 0 0-.48-.944c-.288-.235-.677-.352-1.168-.352-.48 0-.848.09-1.104.272a.842.842 0 0 0-.384.72c0 .234.086.432.256.592.171.16.379.288.624.384.246.085.608.197 1.088.336.64.17 1.163.346 1.568.528.416.17.774.426 1.072.768.299.341.454.794.464 1.36 0 .501-.138.949-.416 1.344-.277.394-.672.704-1.184.928-.501.224-1.093.336-1.776.336z"/><defs><linearGradient id="b" x1="26.376" x2="26.376" y1="9.782" y2="24.749" gradientUnits="userSpaceOnUse"><stop stop-color="#FDFCFF"/><stop offset="1" stop-color="#9EC3F7"/></linearGradient><linearGradient id="d" x1="11.896" x2="11.896" y1="1.489" y2="33.379" gradientUnits="userSpaceOnUse"><stop stop-color="#FDFCFF"/><stop offset="1" stop-color="#9EC3F7"/></linearGradient><linearGradient id="f" x1="22.227" x2="22.227" y1="4.629" y2="29.513" gradientUnits="userSpaceOnUse"><stop stop-color="#FDFCFF"/><stop offset="1" stop-color="#9EC3F7"/></linearGradient><linearGradient id="h" x1="17.517" x2="17.517" y1="2.576" y2="31.929" gradientUnits="userSpaceOnUse"><stop stop-color="#FDFCFF"/><stop offset="1" stop-color="#9EC3F7"/></linearGradient><linearGradient id="j" x1="5.796" x2="5.796" y1="1.489" y2="33.152" gradientUnits="userSpaceOnUse"><stop stop-color="#FDFCFF"/><stop offset="1" stop-color="#9EC3F7"/></linearGradient><filter id="a" width="6.905" height="19.151" x="22.287" y="9.196" color-interpolation-filters="sRGB" filterUnits="userSpaceOnUse"><feFlood flood-opacity="0" result="BackgroundImageFix"/><feColorMatrix in="SourceAlpha" result="hardAlpha" values="0 0 0 0 0 0 0 0 0 0 0 0 0 0 0 0 0 0 127 0"/><feOffset dx="-.586" dy="1.506"/><feGaussianBlur stdDeviation="1.046"/><feComposite in2="hardAlpha" operator="out"/><feColorMatrix values="0 0 0 0 0 0 0 0 0 0 0 0 0 0 0 0 0 0 0.25 0"/><feBlend in2="BackgroundImageFix" result="effect1_dropShadow_174_4337"/><feBlend in="SourceGraphic" in2="effect1_dropShadow_174_4337" result="shape"/></filter><filter id="c" width="8.761" height="36.074" x="6.846" y=".903" color-interpolation-filters="sRGB" filterUnits="userSpaceOnUse"><feFlood flood-opacity="0" result="BackgroundImageFix"/><feColorMatrix in="SourceAlpha" result="hardAlpha" values="0 0 0 0 0 0 0 0 0 0 0 0 0 0 0 0 0 0 127 0"/><feOffset dx="-.586" dy="1.506"/><feGaussianBlur stdDeviation="1.046"/><feComposite in2="hardAlpha" operator="out"/><feColorMatrix values="0 0 0 0 0 0 0 0 0 0 0 0 0 0 0 0 0 0 0.25 0"/><feBlend in2="BackgroundImageFix" result="effect1_dropShadow_174_4337"/><feBlend in="SourceGraphic" in2="effect1_dropShadow_174_4337" result="shape"/></filter><filter id="e" width="7.952" height="29.068" x="17.596" y="4.043" color-interpolation-filters="sRGB" filterUnits="userSpaceOnUse"><feFlood flood-opacity="0" result="BackgroundImageFix"/><feColorMatrix in="SourceAlpha" result="hardAlpha" values="0 0 0 0 0 0 0 0 0 0 0 0 0 0 0 0 0 0 127 0"/><feOffset dx="-.586" dy="1.506"/><feGaussianBlur stdDeviation="1.046"/><feComposite in2="hardAlpha" operator="out"/><feColorMatrix values="0 0 0 0 0 0 0 0 0 0 0 0 0 0 0 0 0 0 0.25 0"/><feBlend in2="BackgroundImageFix" result="effect1_dropShadow_174_4337"/><feBlend in="SourceGraphic" in2="effect1_dropShadow_174_4337" result="shape"/></filter><filter id="g" width="8.885" height="33.537" x="12.402" y="1.99" color-interpolation-filters="sRGB" filterUnits="userSpaceOnUse"><feFlood flood-opacity="0" result="BackgroundImageFix"/><feColorMatrix in="SourceAlpha" result="hardAlpha" values="0 0 0 0 0 0 0 0 0 0 0 0 0 0 0 0 0 0 127 0"/><feOffset dx="-.586" dy="1.506"/><feGaussianBlur stdDeviation="1.046"/><feComposite in2="hardAlpha" operator="out"/><feColorMatrix values="0 0 0 0 0 0 0 0 0 0 0 0 0 0 0 0 0 0 0.25 0"/><feBlend in2="BackgroundImageFix" result="effect1_dropShadow_174_4337"/><feBlend in="SourceGraphic" in2="effect1_dropShadow_174_4337" result="shape"/></filter><filter id="i" width="9.577" height="35.847" x=".322" y=".903" color-interpolation-filters="sRGB" filterUnits="userSpaceOnUse"><feFlood flood-opacity="0" result="BackgroundImageFix"/><feColorMatrix in="SourceAlpha" result="hardAlpha" values="0 0 0 0 0 0 0 0 0 0 0 0 0 0 0 0 0 0 127 0"/><feOffset dx="-.586" dy="1.506"/><feGaussianBlur stdDeviation="1.046"/><feComposite in2="hardAlpha" operator="out"/><feColorMatrix values="0 0 0 0 0 0 0 0 0 0 0 0 0 0 0 0 0 0 0.25 0"/><feBlend in2="BackgroundImageFix" result="effect1_dropShadow_174_4337"/><feBlend in="SourceGraphic" in2="effect1_dropShadow_174_4337" result="shape"/></filter></defs></svg>